<?xml version="1.0" encoding="UTF-8"?>
<svg width="16px" height="16px" viewBox="0 0 16 16" version="1.1" xmlns="http://www.w3.org/2000/svg" xmlns:xlink="http://www.w3.org/1999/xlink">
    <!-- Generator: Sketch 53.2 (72643) - https://sketchapp.com -->
    <title>@1xicon/Search</title>
    <desc>Created with Sketch.</desc>
    <defs>
        <rect id="path-1" x="0" y="0" width="16" height="16"></rect>
    </defs>
    <g id="icon/Search" stroke="none" stroke-width="1" fill="none" fill-rule="evenodd">
        <mask id="mask-2" fill="white">
            <use xlink:href="#path-1"></use>
        </mask>
        <g id="Background"></g>
        <path d="M10.5625,9.53125 L14,12.96875 L12.96875,14 L9.5625,10.5625 L9.5625,10.03125 L9.34375,9.84375 C8.5104125,10.5520869 7.54167219,10.90625 6.4375,10.90625 C5.20832719,10.90625 4.16146266,10.4739627 3.296875,9.609375 C2.43228734,8.74478734 2,7.69792281 2,6.46875 C2,5.23957719 2.43228734,4.18750438 3.296875,3.3125 C4.16146266,2.43749562 5.19791063,2 6.40625,2 C7.63542281,2 8.68228734,2.43749562 9.546875,3.3125 C10.4114627,4.18750438 10.84375,5.23957719 10.84375,6.46875 C10.84375,7.57292219 10.4895869,8.5416625 9.78125,9.375 L10,9.53125 L10.5625,9.53125 Z M4.25,8.65625 C4.85416969,9.23958625 5.58332906,9.53125 6.4375,9.53125 C7.29167094,9.53125 8.02083031,9.23437797 8.625,8.640625 C9.22916969,8.04687203 9.53125,7.32292094 9.53125,6.46875 C9.53125,5.61457906 9.22916969,4.88541969 8.625,4.28125 C8.02083031,3.67708031 7.29167094,3.375 6.4375,3.375 C5.58332906,3.375 4.85937797,3.67708031 4.265625,4.28125 C3.67187203,4.88541969 3.375,5.61457906 3.375,6.46875 C3.375,7.32292094 3.66666375,8.05208031 4.25,8.65625 Z" id="Combined-Shape" fill="#767676" mask="url(#mask-2)"></path>
    </g>
</svg>