<?xml version="1.0" encoding="utf-8"?>
<!-- Generator: Adobe Illustrator 22.1.0, SVG Export Plug-In . SVG Version: 6.00 Build 0)  -->
<svg version="1.1" id="Layer_1" xmlns="http://www.w3.org/2000/svg" xmlns:xlink="http://www.w3.org/1999/xlink" x="0px" y="0px"
	 viewBox="0 0 500 380" style="enable-background:new 0 0 500 380;" xml:space="preserve">
<style type="text/css">
	.st0{fill:#006B39;}
</style>
<g>
	<polygon class="st0" points="0,175.3 184.4,175.3 228.5,101.8 0,101.8 	"/>
	<polygon class="st0" points="376,101.8 272.1,101.8 228.1,175.3 330.7,175.3 	"/>
	<path class="st0" d="M288.5,74.6H500V0H354.4c-13.2,0-25.4,6.9-32.2,18.2L288.5,74.6z"/>
	<polygon class="st0" points="500,101.8 419.6,101.8 374.4,175.3 500,175.3 	"/>
	<path class="st0" d="M211.8,202.5l-16.7,27.9c-0.8,1.3-1.2,2.7-1.2,4.2l-0.2,7.6c0,1.2,0.4,2.4,1.2,3.3l23.9,26.9
		c2.4,2.7,5.7,4.2,9.3,4.2h245.4c14.6,0,26.4-11.8,26.4-26.4v-47.6H211.8z"/>
	<polygon class="st0" points="168.1,202.5 0,202.5 0,276.6 123.7,276.6 	"/>
	<path class="st0" d="M244.8,74.6L289.5,0H47.6C21.3,0,0,21.3,0,47.6v27H244.8z"/>
</g>
<g>
	<g>
		<path d="M0,365.2v-53.3h36v6.3H7.1v16.5h25v6.3h-25v24.2H0z"/>
		<path d="M74,360.4c-2.4,2.1-4.8,3.5-7,4.4c-2.2,0.8-4.6,1.3-7.2,1.3c-4.2,0-7.5-1-9.8-3.1c-2.3-2.1-3.4-4.7-3.4-7.9
			c0-1.9,0.4-3.6,1.3-5.2c0.9-1.6,2-2.8,3.4-3.8c1.4-0.9,3-1.7,4.7-2.1c1.3-0.3,3.2-0.7,5.8-1c5.3-0.6,9.2-1.4,11.7-2.3
			c0-0.9,0-1.5,0-1.7c0-2.7-0.6-4.5-1.9-5.6c-1.7-1.5-4.2-2.2-7.5-2.2c-3.1,0-5.4,0.5-6.8,1.6c-1.5,1.1-2.6,3-3.3,5.7l-6.4-0.9
			c0.6-2.7,1.5-5,2.9-6.6c1.3-1.7,3.3-3,5.8-3.9c2.5-0.9,5.4-1.4,8.8-1.4c3.3,0,6,0.4,8,1.2c2.1,0.8,3.6,1.8,4.5,2.9
			c1,1.2,1.6,2.7,2,4.5c0.2,1.1,0.3,3.1,0.3,6v8.7c0,6.1,0.1,9.9,0.4,11.5c0.3,1.6,0.8,3.2,1.7,4.6h-6.8
			C74.6,363.8,74.1,362.3,74,360.4z M73.4,345.8c-2.4,1-5.9,1.8-10.7,2.5c-2.7,0.4-4.6,0.8-5.7,1.3c-1.1,0.5-2,1.2-2.6,2.1
			c-0.6,0.9-0.9,2-0.9,3.1c0,1.7,0.7,3.2,2,4.4c1.3,1.2,3.3,1.7,5.8,1.7c2.5,0,4.8-0.6,6.7-1.7c2-1.1,3.4-2.6,4.3-4.5
			c0.7-1.5,1.1-3.7,1.1-6.5V345.8z"/>
		<path d="M108.9,359.3l0.9,5.8c-1.8,0.4-3.5,0.6-4.9,0.6c-2.4,0-4.2-0.4-5.5-1.1c-1.3-0.8-2.2-1.7-2.8-3c-0.5-1.2-0.8-3.8-0.8-7.7
			v-22.2H91v-5.1h4.8V317l6.5-3.9v13.5h6.6v5.1h-6.6v22.6c0,1.9,0.1,3.1,0.3,3.6c0.2,0.5,0.6,1,1.1,1.3c0.5,0.3,1.3,0.5,2.2,0.5
			C106.8,359.6,107.7,359.5,108.9,359.3z"/>
		<path d="M119.8,319.4v-7.5h6.5v7.5H119.8z M119.8,365.2v-38.6h6.5v38.6H119.8z"/>
		<path d="M140.8,365.2v-38.6h5.9v5.4c1.2-1.9,2.8-3.4,4.8-4.6c2-1.2,4.3-1.7,6.9-1.7c2.9,0,5.2,0.6,7,1.8c1.8,1.2,3.1,2.8,3.9,5
			c3.1-4.5,7-6.8,11.9-6.8c3.8,0,6.8,1.1,8.8,3.2c2.1,2.1,3.1,5.4,3.1,9.8v26.5h-6.5v-24.3c0-2.6-0.2-4.5-0.6-5.7
			c-0.4-1.2-1.2-2.1-2.3-2.8c-1.1-0.7-2.4-1.1-3.9-1.1c-2.7,0-5,0.9-6.8,2.7s-2.7,4.7-2.7,8.7v22.4h-6.5v-25.1
			c0-2.9-0.5-5.1-1.6-6.5c-1.1-1.5-2.8-2.2-5.2-2.2c-1.8,0-3.5,0.5-5.1,1.5c-1.6,1-2.7,2.4-3.4,4.3c-0.7,1.9-1.1,4.6-1.1,8.1v20
			H140.8z"/>
		<path d="M233.6,360.4c-2.4,2.1-4.8,3.5-7,4.4c-2.2,0.8-4.6,1.3-7.2,1.3c-4.2,0-7.5-1-9.8-3.1c-2.3-2.1-3.4-4.7-3.4-7.9
			c0-1.9,0.4-3.6,1.3-5.2c0.9-1.6,2-2.8,3.4-3.8c1.4-0.9,3-1.7,4.7-2.1c1.3-0.3,3.2-0.7,5.8-1c5.3-0.6,9.2-1.4,11.7-2.3
			c0-0.9,0-1.5,0-1.7c0-2.7-0.6-4.5-1.9-5.6c-1.7-1.5-4.2-2.2-7.5-2.2c-3.1,0-5.4,0.5-6.8,1.6c-1.5,1.1-2.6,3-3.3,5.7l-6.4-0.9
			c0.6-2.7,1.5-5,2.9-6.6c1.3-1.7,3.3-3,5.8-3.9c2.5-0.9,5.4-1.4,8.8-1.4c3.3,0,6,0.4,8,1.2c2.1,0.8,3.6,1.8,4.5,2.9
			c1,1.2,1.6,2.7,2,4.5c0.2,1.1,0.3,3.1,0.3,6v8.7c0,6.1,0.1,9.9,0.4,11.5c0.3,1.6,0.8,3.2,1.7,4.6h-6.8
			C234.2,363.8,233.8,362.3,233.6,360.4z M233,345.8c-2.4,1-5.9,1.8-10.7,2.5c-2.7,0.4-4.6,0.8-5.7,1.3c-1.1,0.5-2,1.2-2.6,2.1
			c-0.6,0.9-0.9,2-0.9,3.1c0,1.7,0.7,3.2,2,4.4c1.3,1.2,3.3,1.7,5.8,1.7c2.5,0,4.8-0.6,6.7-1.7c2-1.1,3.4-2.6,4.3-4.5
			c0.7-1.5,1.1-3.7,1.1-6.5V345.8z"/>
	</g>
	<g>
		<path d="M308.8,344.3V338l22.6,0v19.8c-3.5,2.8-7,4.8-10.7,6.2c-3.7,1.4-7.5,2.1-11.3,2.1c-5.2,0-10-1.1-14.3-3.4
			s-7.5-5.5-9.7-9.7c-2.2-4.2-3.3-9-3.3-14.2c0-5.2,1.1-10,3.3-14.5c2.2-4.5,5.3-7.8,9.4-10c4.1-2.2,8.8-3.3,14.1-3.3
			c3.9,0,7.3,0.6,10.5,1.9c3.1,1.2,5.6,3,7.3,5.2c1.8,2.2,3.1,5.1,4,8.7l-6.4,1.7c-0.8-2.7-1.8-4.8-3-6.4c-1.2-1.6-2.9-2.8-5.1-3.7
			c-2.2-0.9-4.7-1.4-7.3-1.4c-3.2,0-6,0.5-8.4,1.5c-2.4,1-4.2,2.3-5.7,3.9c-1.4,1.6-2.6,3.4-3.4,5.3c-1.4,3.3-2,6.9-2,10.7
			c0,4.8,0.8,8.7,2.5,11.9c1.6,3.2,4,5.6,7.1,7.1c3.1,1.6,6.4,2.3,10,2.3c3.1,0,6-0.6,8.9-1.8c2.9-1.2,5.1-2.4,6.6-3.8v-9.9H308.8z"
			/>
		<path d="M345.4,365.2v-38.6h5.9v5.9c1.5-2.7,2.9-4.5,4.2-5.4c1.3-0.9,2.7-1.3,4.2-1.3c2.2,0,4.4,0.7,6.7,2.1l-2.3,6.1
			c-1.6-0.9-3.2-1.4-4.8-1.4c-1.4,0-2.7,0.4-3.9,1.3c-1.1,0.9-2,2.1-2.4,3.6c-0.7,2.3-1.1,4.9-1.1,7.6v20.2H345.4z"/>
		<path d="M372.3,345.9c0-7.2,2-12.4,6-15.9c3.3-2.9,7.4-4.3,12.1-4.3c5.3,0,9.6,1.7,13,5.2c3.4,3.5,5.1,8.3,5.1,14.4
			c0,5-0.7,8.9-2.2,11.7c-1.5,2.8-3.7,5.1-6.5,6.6c-2.8,1.6-6,2.4-9.3,2.4c-5.4,0-9.8-1.7-13.1-5.2
			C373.9,357.4,372.3,352.4,372.3,345.9z M379,345.9c0,4.9,1.1,8.6,3.2,11.1c2.2,2.5,4.9,3.7,8.1,3.7c3.2,0,6-1.2,8.1-3.7
			c2.2-2.5,3.2-6.2,3.2-11.3c0-4.8-1.1-8.4-3.3-10.9c-2.2-2.5-4.9-3.7-8.1-3.7c-3.3,0-6,1.2-8.1,3.7
			C380.1,337.3,379,340.9,379,345.9z"/>
		<path d="M445.9,365.2v-5.7c-3,4.4-7.1,6.5-12.3,6.5c-2.3,0-4.4-0.4-6.4-1.3c-2-0.9-3.4-2-4.4-3.3c-1-1.3-1.6-2.9-2-4.9
			c-0.3-1.3-0.4-3.3-0.4-6.1v-23.9h6.5V348c0,3.4,0.1,5.7,0.4,6.9c0.4,1.7,1.3,3.1,2.6,4.1c1.3,1,3,1.5,4.9,1.5c2,0,3.8-0.5,5.5-1.5
			c1.7-1,2.9-2.4,3.7-4.1c0.7-1.7,1.1-4.2,1.1-7.5v-20.7h6.5v38.6H445.9z"/>
		<path d="M466.5,380v-53.4h6v5c1.4-2,3-3.4,4.8-4.4c1.8-1,3.9-1.5,6.4-1.5c3.3,0,6.2,0.8,8.7,2.5c2.5,1.7,4.4,4.1,5.7,7.2
			c1.3,3.1,1.9,6.5,1.9,10.2c0,4-0.7,7.5-2.1,10.7c-1.4,3.2-3.5,5.6-6.2,7.3c-2.7,1.7-5.5,2.5-8.5,2.5c-2.2,0-4.1-0.5-5.9-1.4
			c-1.7-0.9-3.2-2.1-4.3-3.5V380H466.5z M472.4,346.1c0,5,1,8.6,3,11c2,2.4,4.4,3.6,7.3,3.6c2.9,0,5.4-1.2,7.5-3.7
			c2.1-2.5,3.1-6.3,3.1-11.4c0-4.9-1-8.6-3-11.1c-2-2.4-4.4-3.7-7.3-3.7c-2.8,0-5.3,1.3-7.4,3.9
			C473.5,337.4,472.4,341.1,472.4,346.1z"/>
	</g>
</g>
</svg>
