<?xml version="1.0" encoding="UTF-8"?>
<svg width="202px" height="86px" viewBox="0 0 202 86" version="1.1" xmlns="http://www.w3.org/2000/svg" xmlns:xlink="http://www.w3.org/1999/xlink">
    <!-- Generator: Sketch 52.5 (67469) - http://www.bohemiancoding.com/sketch -->
    <title>@3xGroup 7</title>
    <desc>Created with Sketch.</desc>
    <defs>
        <path d="M5.48046875,5.48046875 C9.13413285,1.82680465 13.5364326,0 18.6875,0 C23.8385674,0 28.2408671,1.82680465 31.8945312,5.48046875 C35.5481954,9.13413285 37.375,13.5364326 37.375,18.6875 C37.375,23.8385674 35.5481954,28.2408671 31.8945312,31.8945312 C28.2408671,35.5481954 23.8385674,37.375 18.6875,37.375 C13.5364326,37.375 9.13413285,35.5481954 5.48046875,31.8945312 C1.82680465,28.2408671 0,23.8385674 0,18.6875 C0,13.5364326 1.82680465,9.13413285 5.48046875,5.48046875 Z M6.55859375,30.8164062 C9.91277719,34.1705897 13.9557055,35.8476562 18.6875,35.8476562 C23.4192945,35.8476562 27.4622228,34.1705897 30.8164062,30.8164062 C34.1705897,27.4622228 35.8476562,23.4192945 35.8476562,18.6875 C35.8476562,13.9557055 34.1705897,9.91277719 30.8164062,6.55859375 C27.4622228,3.20441031 23.4192945,1.52734375 18.6875,1.52734375 C13.9557055,1.52734375 9.91277719,3.20441031 6.55859375,6.55859375 C3.20441031,9.91277719 1.52734375,13.9557055 1.52734375,18.6875 C1.52734375,23.4192945 3.20441031,27.4622228 6.55859375,30.8164062 Z M19.40625,7.1875 L19.40625,17.96875 L30.1875,17.96875 L30.1875,19.4960938 L19.40625,19.4960938 L19.40625,30.1875 L17.8789062,30.1875 L17.8789062,19.4960938 L7.1875,19.4960938 L7.1875,17.96875 L17.8789062,17.96875 L17.8789062,7.1875 L19.40625,7.1875 Z" id="path-1"></path>
    </defs>
    <g id="Web-Portal_Ticket-Manager" stroke="none" stroke-width="1" fill="none" fill-rule="evenodd">
        <g id="V2-41-TM_Create-News" transform="translate(-619.000000, -382.000000)">
            <g id="Group-7" transform="translate(618.000000, 381.000000)">
                <path d="M182.123389,37.2932621 C180.665049,38.7516027 178.894233,39.4807621 176.810889,39.4807621 C174.727545,39.4807621 172.95673,38.7516027 171.498389,37.2932621 C170.040049,35.8349215 169.310889,34.0641059 169.310889,31.9807621 C169.310889,29.8974184 170.040049,28.1266027 171.498389,26.6682621 C172.95673,25.2099215 174.727545,24.4807621 176.810889,24.4807621 C178.894233,24.4807621 180.665049,25.2099215 182.123389,26.6682621 C183.58173,28.1266027 184.310889,29.8974184 184.310889,31.9807621 C184.310889,34.0641059 183.58173,35.8349215 182.123389,37.2932621 Z M189.935889,14.4807621 C191.185895,14.4807621 192.227552,14.8974246 193.060889,15.7307621 C193.894227,16.5640996 194.310889,17.6057559 194.310889,18.8557621 L194.310889,70.1057621 C194.310889,71.3557684 193.894227,72.3974246 193.060889,73.2307621 C192.227552,74.0640996 191.185895,74.4807621 189.935889,74.4807621 L128.685889,74.4807621 C127.435883,74.4807621 126.394227,74.0640996 125.560889,73.2307621 C124.727552,72.3974246 124.310889,71.3557684 124.310889,70.1057621 L124.310889,18.8557621 C124.310889,17.6057559 124.727552,16.5640996 125.560889,15.7307621 C126.394227,14.8974246 127.435883,14.4807621 128.685889,14.4807621 L189.935889,14.4807621 Z M173.842139,45.4182621 L189.310889,61.9807621 L189.310889,21.3557621 C189.310889,20.1057559 188.633813,19.4807621 187.279639,19.4807621 L131.342139,19.4807621 C130.1963,19.4807621 129.519224,20.1057559 129.310889,21.3557621 L129.310889,61.9807621 L148.998389,38.2307621 C149.831727,37.3974246 150.717134,36.9807621 151.654639,36.9807621 C152.800478,36.9807621 153.685886,37.3453418 154.310889,38.0745121 L162.748389,47.2932621 L163.373389,47.9182621 C163.998392,48.3349309 164.571303,48.5432621 165.092139,48.5432621 C165.612975,48.5432621 166.237969,48.2828481 166.967139,47.7620121 L169.779639,45.2620121 C170.508809,44.7411762 171.185886,44.4807621 171.810889,44.4807621 C172.644227,44.4807621 173.321303,44.793259 173.842139,45.4182621 Z" id="ion-image---Ionicons" fill="#767676" transform="translate(159.310889, 44.480762) rotate(30.000000) translate(-159.310889, -44.480762) "></path>
                <path d="M68.1233891,36.2932621 C66.6650485,37.7516027 64.8942329,38.4807621 62.8108891,38.4807621 C60.7275454,38.4807621 58.9567298,37.7516027 57.4983891,36.2932621 C56.0400485,34.8349215 55.3108891,33.0641059 55.3108891,30.9807621 C55.3108891,28.8974184 56.0400485,27.1266027 57.4983891,25.6682621 C58.9567298,24.2099215 60.7275454,23.4807621 62.8108891,23.4807621 C64.8942329,23.4807621 66.6650485,24.2099215 68.1233891,25.6682621 C69.5817298,27.1266027 70.3108891,28.8974184 70.3108891,30.9807621 C70.3108891,33.0641059 69.5817298,34.8349215 68.1233891,36.2932621 Z M75.9358891,13.4807621 C77.1858954,13.4807621 78.2275516,13.8974246 79.0608891,14.7307621 C79.8942266,15.5640996 80.3108891,16.6057559 80.3108891,17.8557621 L80.3108891,69.1057621 C80.3108891,70.3557684 79.8942266,71.3974246 79.0608891,72.2307621 C78.2275516,73.0640996 77.1858954,73.4807621 75.9358891,73.4807621 L14.6858891,73.4807621 C13.4358829,73.4807621 12.3942266,73.0640996 11.5608891,72.2307621 C10.7275516,71.3974246 10.3108891,70.3557684 10.3108891,69.1057621 L10.3108891,17.8557621 C10.3108891,16.6057559 10.7275516,15.5640996 11.5608891,14.7307621 C12.3942266,13.8974246 13.4358829,13.4807621 14.6858891,13.4807621 L75.9358891,13.4807621 Z M59.8421391,44.4182621 L75.3108891,60.9807621 L75.3108891,20.3557621 C75.3108891,19.1057559 74.6338126,18.4807621 73.2796391,18.4807621 L17.3421391,18.4807621 C16.1963001,18.4807621 15.5192235,19.1057559 15.3108891,20.3557621 L15.3108891,60.9807621 L34.9983891,37.2307621 C35.8317266,36.3974246 36.7171344,35.9807621 37.6546391,35.9807621 C38.8004782,35.9807621 39.685886,36.3453418 40.3108891,37.0745121 L48.7483891,46.2932621 L49.3733891,46.9182621 C49.9983923,47.3349309 50.5713032,47.5432621 51.0921391,47.5432621 C51.6129751,47.5432621 52.2379688,47.2828481 52.9671391,46.7620121 L55.7796391,44.2620121 C56.5088094,43.7411762 57.185886,43.4807621 57.8108891,43.4807621 C58.6442266,43.4807621 59.3213032,43.793259 59.8421391,44.4182621 Z" id="ion-image---Ionicons-Copy" fill="#767676" transform="translate(45.310889, 43.480762) rotate(-30.000000) translate(-45.310889, -43.480762) "></path>
                <g id="icon/Add" transform="translate(83.000000, 48.000000)">
                    <mask id="mask-2" fill="white">
                        <use xlink:href="#path-1"></use>
                    </mask>
                    <use id="ion-ios-plus-outline---Ionicons" fill="#939393" xlink:href="#path-1"></use>
                </g>
            </g>
        </g>
    </g>
</svg>