<?xml version="1.0" encoding="UTF-8"?>
<svg width="16px" height="16px" viewBox="0 0 16 16" version="1.1" xmlns="http://www.w3.org/2000/svg" xmlns:xlink="http://www.w3.org/1999/xlink">
    <!-- Generator: Sketch 53.2 (72643) - https://sketchapp.com -->
    <title>@1xicon/view</title>
    <desc>Created with Sketch.</desc>
    <g id="icon/view" stroke="none" stroke-width="1" fill="none" fill-rule="evenodd">
        <path d="M8,3 C10.6190607,3 13.2857007,4.53569893 16,7.60714286 C15.3571396,8.25000321 14.9464295,8.65476107 14.7678571,8.82142857 C14.5892848,8.98809607 14.1547654,9.35714 13.4642857,9.92857143 C12.7738061,10.5000029 12.2142879,10.8928561 11.7857143,11.1071429 C11.3571407,11.3214296 10.7916702,11.5476179 10.0892857,11.7857143 C9.38690125,12.0238107 8.69047964,12.1428571 8,12.1428571 C7.14285286,12.1428571 6.35714643,12.0357154 5.64285714,11.8214286 C4.92856786,11.6071418 4.21428929,11.2380979 3.5,10.7142857 C2.78571071,10.1904736 2.2261925,9.74404946 1.82142857,9.375 C1.41666464,9.00595054 0.809527857,8.40476607 0,7.57142857 C1.54762679,6.02380179 2.92261304,4.87500375 4.125,4.125 C5.32738696,3.37499625 6.61904071,3 8,3 Z M5.71428571,9.85714286 C6.35714607,10.5000032 7.11904321,10.8214286 8,10.8214286 C8.88095679,10.8214286 9.63690161,10.5000032 10.2678571,9.85714286 C10.8988127,9.2142825 11.2142857,8.45238536 11.2142857,7.57142857 C11.2142857,6.69047179 10.8988127,5.92857464 10.2678571,5.28571429 C9.63690161,4.64285393 8.88095679,4.32142857 8,4.32142857 C7.11904321,4.32142857 6.36309839,4.64285393 5.73214286,5.28571429 C5.10118732,5.92857464 4.78571429,6.69047179 4.78571429,7.57142857 C4.78571429,8.45238536 5.095235,9.2142825 5.71428571,9.85714286 Z M8,6.42857143 C8,6.76190643 8.10714179,7.03571321 8.32142857,7.25 C8.53571536,7.46428679 8.80952214,7.57142857 9.14285714,7.57142857 C9.38095357,7.57142857 9.61904643,7.48809607 9.85714286,7.32142857 L9.85714286,7.57142857 C9.85714286,8.09524071 9.67857321,8.54166482 9.32142857,8.91071429 C8.96428393,9.27976375 8.52381214,9.46428571 8,9.46428571 C7.47618786,9.46428571 7.03571607,9.27976375 6.67857143,8.91071429 C6.32142679,8.54166482 6.14285714,8.09524071 6.14285714,7.57142857 C6.14285714,7.04761643 6.32142679,6.60119232 6.67857143,6.23214286 C7.03571607,5.86309339 7.47618786,5.67857143 8,5.67857143 L8.28571429,5.67857143 C8.09523714,5.91666786 8,6.16666536 8,6.42857143 Z" id="ion-eye---Ionicons" fill="#767676"></path>
    </g>
</svg>